<svg width="140" height="140" viewBox="0 0 140 140" fill="none" xmlns="http://www.w3.org/2000/svg">
<rect opacity="0.01" width="140" height="140" fill="white"/>
<path fill-rule="evenodd" clip-rule="evenodd" d="M72.5 81C79.4036 81 85 86.5964 85 93.5C85 100.301 79.5694 105.833 72.8082 105.996L72.5 106H71.5C67.9101 106 65 108.91 65 112.5C65 116.012 67.785 118.873 71.2669 118.996L71.5 119H109V125H71.5C64.5964 125 59 119.404 59 112.5C59 105.699 64.4306 100.167 71.1918 100.004L71.5 100H72.5C76.0899 100 79 97.0899 79 93.5C79 89.9882 76.215 87.1268 72.7331 87.0041L72.5 87H37V81H72.5Z" fill="#131523"/>
<path fill-rule="evenodd" clip-rule="evenodd" d="M37 87C51.3594 87 63 70.8823 63 51C63 31.1177 51.3594 15 37 15C22.6406 15 11 31.1177 11 51C11 70.8823 22.6406 87 37 87ZM37 53C43.6274 53 49 47.6274 49 41C49 34.3726 43.6274 29 37 29C30.3726 29 25 34.3726 25 41C25 47.6274 30.3726 53 37 53Z" fill="#336DFF"/>
<path fill-rule="evenodd" clip-rule="evenodd" d="M109 125C120.598 125 130 112.016 130 96C130 79.9837 120.598 67 109 67C97.402 67 88 79.9837 88 96C88 112.016 97.402 125 109 125ZM109 98C114.523 98 119 93.5228 119 88C119 82.4772 114.523 78 109 78C103.477 78 99 82.4772 99 88C99 93.5228 103.477 98 109 98Z" fill="#A1A7C4"/>
</svg>
