<svg xmlns="http://www.w3.org/2000/svg" xmlns:xlink="http://www.w3.org/1999/xlink" width="2000" viewBox="0 0 1500 899.99999" height="1200" preserveAspectRatio="xMidYMid meet"><defs><g></g><clipPath id="c518c583d9"><path d="M 305 539 L 919 539 L 919 877 L 305 877 Z M 305 539 " clip-rule="nonzero"></path></clipPath><clipPath id="47a96876ee"><path d="M 130.527344 -40.003906 L 984.140625 72.535156 L 866.996094 961.097656 L 13.382812 848.558594 Z M 130.527344 -40.003906 " clip-rule="nonzero"></path></clipPath><clipPath id="c3c00efd5c"><path d="M 130.527344 -40.003906 L 984.140625 72.535156 L 866.996094 961.097656 L 13.382812 848.558594 Z M 130.527344 -40.003906 " clip-rule="nonzero"></path></clipPath><clipPath id="574fc47371"><path d="M 70 13 L 891 13 L 891 891 L 70 891 Z M 70 13 " clip-rule="nonzero"></path></clipPath><clipPath id="950d20e406"><path d="M 130.527344 -40.003906 L 984.140625 72.535156 L 866.996094 961.097656 L 13.382812 848.558594 Z M 130.527344 -40.003906 " clip-rule="nonzero"></path></clipPath><clipPath id="163b44527f"><path d="M 130.527344 -40.003906 L 984.140625 72.535156 L 866.996094 961.097656 L 13.382812 848.558594 Z M 130.527344 -40.003906 " clip-rule="nonzero"></path></clipPath><clipPath id="b5d00852ea"><path d="M 101 634 L 198 634 L 198 687 L 101 687 Z M 101 634 " clip-rule="nonzero"></path></clipPath><clipPath id="d0e544b8d7"><path d="M 130.527344 -40.003906 L 984.140625 72.535156 L 866.996094 961.097656 L 13.382812 848.558594 Z M 130.527344 -40.003906 " clip-rule="nonzero"></path></clipPath><clipPath id="6273fd1954"><path d="M 130.527344 -40.003906 L 984.140625 72.535156 L 866.996094 961.097656 L 13.382812 848.558594 Z M 130.527344 -40.003906 " clip-rule="nonzero"></path></clipPath><clipPath id="f196e6b3d8"><path d="M 101 686 L 215 686 L 215 741 L 101 741 Z M 101 686 " clip-rule="nonzero"></path></clipPath><clipPath id="73c55b98f3"><path d="M 130.527344 -40.003906 L 984.140625 72.535156 L 866.996094 961.097656 L 13.382812 848.558594 Z M 130.527344 -40.003906 " clip-rule="nonzero"></path></clipPath><clipPath id="b780edae41"><path d="M 130.527344 -40.003906 L 984.140625 72.535156 L 866.996094 961.097656 L 13.382812 848.558594 Z M 130.527344 -40.003906 " clip-rule="nonzero"></path></clipPath><clipPath id="0544ad8e06"><path d="M 132 740 L 229 740 L 229 792 L 132 792 Z M 132 740 " clip-rule="nonzero"></path></clipPath><clipPath id="d92d633055"><path d="M 130.527344 -40.003906 L 984.140625 72.535156 L 866.996094 961.097656 L 13.382812 848.558594 Z M 130.527344 -40.003906 " clip-rule="nonzero"></path></clipPath><clipPath id="79c15d38fa"><path d="M 130.527344 -40.003906 L 984.140625 72.535156 L 866.996094 961.097656 L 13.382812 848.558594 Z M 130.527344 -40.003906 " clip-rule="nonzero"></path></clipPath><clipPath id="c33dd383a9"><path d="M 165 792 L 254 792 L 254 844 L 165 844 Z M 165 792 " clip-rule="nonzero"></path></clipPath><clipPath id="7a40f9d285"><path d="M 130.527344 -40.003906 L 984.140625 72.535156 L 866.996094 961.097656 L 13.382812 848.558594 Z M 130.527344 -40.003906 " clip-rule="nonzero"></path></clipPath><clipPath id="6729b813f5"><path d="M 130.527344 -40.003906 L 984.140625 72.535156 L 866.996094 961.097656 L 13.382812 848.558594 Z M 130.527344 -40.003906 " clip-rule="nonzero"></path></clipPath></defs><g clip-path="url(#c518c583d9)"><g clip-path="url(#47a96876ee)"><g clip-path="url(#c3c00efd5c)"><path fill="#021a32" d="M 729.308594 749.085938 C 762.148438 705.949219 784.523438 653.929688 792.117188 596.339844 C 794.625 577.304688 795.414062 558.441406 794.605469 539.910156 C 772.207031 610.046875 725.699219 668.089844 665.847656 705.710938 C 631.21875 727.480469 585.4375 716.105469 565.277344 680.511719 L 527.648438 614.089844 C 521.390625 603.039062 510.304688 595.570312 497.714844 593.910156 L 323.988281 571.003906 C 323.953125 571 323.914062 571.003906 323.875 571 C 312.007812 569.515625 302.679688 581.003906 306.609375 592.328125 L 311.707031 607.007812 C 321.1875 634.308594 344.25 654.664062 372.515625 660.679688 L 382.703125 662.847656 L 427.285156 672.335938 C 439.90625 675.023438 450.472656 683.59375 455.707031 695.386719 L 471.734375 731.496094 L 480.707031 751.71875 L 530.972656 864.988281 C 531.867188 867.015625 533.082031 868.839844 534.535156 870.414062 C 538.710938 874.960938 544.859375 877.4375 551.230469 876.730469 C 551.28125 876.722656 551.324219 876.714844 551.371094 876.714844 C 723.015625 857.601562 869.257812 736.59375 918.449219 568.648438 C 883.511719 653.523438 813.949219 718.683594 729.308594 749.085938 " fill-opacity="1" fill-rule="nonzero"></path></g></g></g><g clip-path="url(#574fc47371)"><g clip-path="url(#950d20e406)"><g clip-path="url(#163b44527f)"><path fill="#f8971d" d="M 442.460938 701.265625 C 439.121094 693.738281 432.320312 688.226562 424.269531 686.511719 L 369.5 674.855469 C 336.480469 667.828125 309.089844 643.65625 298.015625 611.765625 L 293.1875 597.863281 C 289.753906 587.976562 291.109375 576.867188 297.433594 568.527344 C 303.96875 559.921875 314.28125 555.460938 324.929688 556.53125 L 325.882812 556.636719 L 381.507812 563.96875 C 367.144531 532.953125 336.59375 512.542969 302.351562 511.246094 L 243.84375 509.023438 C 218.78125 508.074219 198.785156 488.074219 197.449219 463.03125 C 196.457031 444.472656 197.15625 425.550781 199.671875 406.453125 C 212.4375 309.621094 269.160156 229.363281 347.101562 183.109375 C 271.070312 219.953125 207.691406 280.480469 167.792969 356.441406 C 219.613281 167.617188 404.105469 41.230469 603.695312 67.542969 C 727.242188 83.832031 830.03125 155.140625 890.699219 253.542969 C 828.796875 129.480469 708.519531 37.3125 560.851562 17.453125 C 324.484375 -14.335938 105.585938 152.820312 74.058594 389.230469 C 62.960938 472.453125 76.320312 553.273438 108.542969 624.5 C 109.222656 626.003906 109.886719 627.511719 110.585938 629.011719 L 169.148438 626.851562 C 195.308594 625.894531 213.113281 653.40625 201.1875 676.71875 C 200.859375 677.359375 200.65625 677.707031 200.65625 677.707031 C 235.769531 695.980469 224.804688 731.082031 224.804688 731.082031 C 255.417969 750.230469 237.96875 779.113281 237.96875 779.113281 C 248.855469 785.398438 251.664062 795.234375 252.304688 798.417969 C 252.636719 800.042969 253.019531 801.652344 253.414062 803.273438 L 268.15625 863.367188 C 270.691406 873.695312 281.390625 883.289062 291.9375 884.679688 C 305.25 886.433594 316.214844 874.347656 313.179688 861.269531 L 306.410156 832.144531 L 297.382812 793.296875 C 296.753906 790.582031 298.890625 787.984375 301.734375 788.148438 C 303.589844 788.257812 305.117188 789.679688 305.597656 791.480469 L 318.070312 837.882812 L 327.300781 872.230469 C 330.480469 884.050781 341.929688 892.105469 354.03125 890.238281 C 368.53125 888.003906 377.546875 873.285156 372.960938 859.355469 C 372.957031 859.347656 372.953125 859.332031 372.949219 859.316406 L 348.605469 785.789062 C 347.558594 782.632812 349.980469 779.402344 353.300781 779.519531 C 355.222656 779.585938 356.917969 780.804688 357.597656 782.601562 L 388.3125 863.851562 L 392.121094 873.925781 C 395.875 883.859375 406.140625 890.128906 416.570312 888.140625 C 424.683594 886.59375 430.714844 880.773438 433.058594 873.605469 C 434.480469 869.234375 434.542969 864.363281 432.84375 859.648438 L 409.121094 793.691406 C 408.078125 790.785156 409.566406 787.441406 412.550781 786.640625 C 415.1875 785.933594 417.847656 787.371094 418.773438 789.84375 L 445.816406 862.617188 C 448 868.496094 451.777344 873.328125 456.476562 876.8125 C 464.296875 882.605469 474.679688 884.648438 484.597656 881.472656 C 486.511719 880.867188 488.296875 880.058594 489.988281 879.140625 C 503.980469 871.554688 510.335938 854.234375 503.625 839.089844 L 442.460938 701.265625 " fill-opacity="1" fill-rule="nonzero"></path></g></g></g><g clip-path="url(#b5d00852ea)"><g clip-path="url(#d0e544b8d7)"><g clip-path="url(#6273fd1954)"><path fill="#021a32" d="M 127.738281 686.019531 L 173.785156 684.480469 C 187.601562 684.019531 198.429688 672.449219 197.96875 658.632812 C 197.507812 644.8125 185.933594 633.980469 172.113281 634.441406 L 126.070312 635.980469 C 112.25 636.4375 101.425781 648.011719 101.886719 661.828125 C 102.34375 675.648438 113.921875 686.472656 127.738281 686.019531 " fill-opacity="1" fill-rule="nonzero"></path></g></g></g><g clip-path="url(#f196e6b3d8)"><g clip-path="url(#73c55b98f3)"><g clip-path="url(#b780edae41)"><path fill="#021a32" d="M 214.519531 710.515625 C 214.058594 696.695312 202.480469 685.867188 188.664062 686.332031 L 125.609375 689.980469 C 111.792969 690.441406 100.964844 702.011719 101.425781 715.828125 C 101.886719 729.644531 113.460938 740.480469 127.277344 740.015625 L 190.332031 736.371094 C 204.152344 735.90625 214.980469 724.332031 214.519531 710.515625 " fill-opacity="1" fill-rule="nonzero"></path></g></g></g><g clip-path="url(#0544ad8e06)"><g clip-path="url(#d92d633055)"><g clip-path="url(#79c15d38fa)"><path fill="#021a32" d="M 228.539062 764.34375 C 228.078125 750.519531 216.503906 739.695312 202.6875 740.15625 L 156.640625 741.6875 C 142.820312 742.148438 131.996094 753.726562 132.453125 767.546875 C 132.914062 781.363281 144.492188 792.1875 158.308594 791.726562 L 204.351562 790.195312 C 218.171875 789.734375 229 778.164062 228.539062 764.34375 " fill-opacity="1" fill-rule="nonzero"></path></g></g></g><g clip-path="url(#c33dd383a9)"><g clip-path="url(#7a40f9d285)"><g clip-path="url(#6729b813f5)"><path fill="#021a32" d="M 227.664062 792.183594 L 189.882812 793.195312 C 176.066406 793.652344 165.238281 805.226562 165.699219 819.046875 C 166.15625 832.863281 177.734375 843.6875 191.550781 843.234375 L 229.332031 842.222656 C 243.152344 841.757812 253.976562 830.183594 253.515625 816.367188 C 253.058594 802.546875 241.480469 791.722656 227.664062 792.183594 " fill-opacity="1" fill-rule="nonzero"></path></g></g></g><g fill="#021a32" fill-opacity="1"><g transform="translate(257.829867, 479.197187)"><g><path d="M 47.125 -207.796875 L 181.75 -207.796875 L 174.4375 -172.390625 L 79.609375 -172.390625 L 69.078125 -122.34375 L 150.71875 -122.34375 L 143.703125 -89.5625 L 62.046875 -89.5625 L 50.625 -35.40625 L 147.796875 -35.40625 L 140.1875 0 L 2.921875 0 Z M 125.265625 -228.859375 L 99.8125 -233.84375 L 122.046875 -268.671875 L 158.34375 -268.671875 Z M 125.265625 -228.859375 "></path></g></g></g><g fill="#021a32" fill-opacity="1"><g transform="translate(456.240311, 479.197187)"><g><path d="M 35.40625 2.34375 C 25.65625 2.34375 18.097656 0.0507812 12.734375 -4.53125 C 7.367188 -9.125 4.6875 -15.710938 4.6875 -24.296875 C 4.6875 -26.046875 4.832031 -27.847656 5.125 -29.703125 C 5.414062 -31.554688 5.660156 -33.457031 5.859375 -35.40625 L 43.90625 -213.65625 L 82.828125 -213.65625 L 48 -49.171875 C 47.800781 -48.191406 47.648438 -47.210938 47.546875 -46.234375 C 47.453125 -45.265625 47.40625 -44.289062 47.40625 -43.3125 C 47.40625 -35.3125 51.40625 -31.3125 59.40625 -31.3125 C 61.550781 -31.3125 64.039062 -31.703125 66.875 -32.484375 C 69.707031 -33.265625 72.390625 -34.238281 74.921875 -35.40625 L 73.75 -5.5625 C 68.289062 -3.019531 61.953125 -1.066406 54.734375 0.296875 C 47.515625 1.660156 41.070312 2.34375 35.40625 2.34375 Z M 35.40625 2.34375 "></path></g></g></g><g fill="#021a32" fill-opacity="1"><g transform="translate(575.933257, 479.197187)"><g><path d="M 58.828125 2.921875 C 47.515625 2.921875 37.804688 0.144531 29.703125 -5.40625 C 21.609375 -10.96875 15.363281 -18.476562 10.96875 -27.9375 C 6.582031 -37.40625 4.390625 -48.09375 4.390625 -60 C 4.390625 -72.675781 6.632812 -84.769531 11.125 -96.28125 C 15.613281 -107.800781 21.804688 -118.046875 29.703125 -127.015625 C 37.609375 -135.992188 46.582031 -143.066406 56.625 -148.234375 C 66.675781 -153.410156 77.265625 -156 88.390625 -156 C 98.921875 -156 107.894531 -153.21875 115.3125 -147.65625 C 122.726562 -142.09375 127.800781 -135.019531 130.53125 -126.4375 L 136.390625 -152.78125 L 175.609375 -152.78125 L 152.78125 -45.078125 C 152.582031 -44.097656 152.382812 -43.164062 152.1875 -42.28125 C 151.988281 -41.40625 151.890625 -40.578125 151.890625 -39.796875 C 151.890625 -35.703125 154.234375 -33.554688 158.921875 -33.359375 L 151.890625 0 C 148.378906 0.582031 145.304688 1.066406 142.671875 1.453125 C 140.035156 1.847656 137.742188 2.046875 135.796875 2.046875 C 128.773438 2.046875 123.3125 0.582031 119.40625 -2.34375 C 115.507812 -5.269531 113.5625 -9.660156 113.5625 -15.515625 C 113.5625 -16.296875 113.65625 -17.222656 113.84375 -18.296875 C 114.039062 -19.367188 114.238281 -20.632812 114.4375 -22.09375 C 114.632812 -23.5625 114.925781 -25.078125 115.3125 -26.640625 C 107.894531 -17.078125 99.113281 -9.757812 88.96875 -4.6875 C 78.820312 0.382812 68.773438 2.921875 58.828125 2.921875 Z M 76.390625 -30.4375 C 79.703125 -30.4375 83.210938 -31.070312 86.921875 -32.34375 C 90.628906 -33.613281 94.285156 -35.367188 97.890625 -37.609375 C 101.503906 -39.847656 104.867188 -42.578125 107.984375 -45.796875 C 111.109375 -49.015625 113.742188 -52.476562 115.890625 -56.1875 L 123.5 -92.78125 C 122.914062 -98.4375 121.160156 -103.507812 118.234375 -108 C 115.304688 -112.488281 111.695312 -116.046875 107.40625 -118.671875 C 103.113281 -121.304688 98.53125 -122.625 93.65625 -122.625 C 87.414062 -122.625 81.414062 -121.015625 75.65625 -117.796875 C 69.894531 -114.578125 64.769531 -110.285156 60.28125 -104.921875 C 55.800781 -99.554688 52.242188 -93.507812 49.609375 -86.78125 C 46.972656 -80.050781 45.65625 -73.171875 45.65625 -66.140625 C 45.65625 -59.503906 46.921875 -53.453125 49.453125 -47.984375 C 51.992188 -42.523438 55.554688 -38.234375 60.140625 -35.109375 C 64.722656 -31.992188 70.140625 -30.4375 76.390625 -30.4375 Z M 76.390625 -30.4375 "></path></g></g></g><g fill="#021a32" fill-opacity="1"><g transform="translate(787.804702, 479.197187)"><g><path d="M 31.3125 -153.359375 L 66.734375 -153.359375 L 60.578125 -124.96875 C 65.648438 -131.601562 71.550781 -137.210938 78.28125 -141.796875 C 85.019531 -146.378906 92.335938 -149.890625 100.234375 -152.328125 C 108.140625 -154.773438 116.285156 -156 124.671875 -156 C 133.648438 -156 140.578125 -154.4375 145.453125 -151.3125 C 150.335938 -148.1875 153.800781 -143.941406 155.84375 -138.578125 C 157.894531 -133.210938 158.921875 -127.210938 158.921875 -120.578125 C 158.921875 -116.484375 158.628906 -112.382812 158.046875 -108.28125 C 157.460938 -104.1875 156.78125 -99.992188 156 -95.703125 L 135.796875 0 L 96.578125 0 L 114.734375 -86.046875 C 115.503906 -88.972656 116.035156 -91.703125 116.328125 -94.234375 C 116.628906 -96.773438 116.78125 -99.21875 116.78125 -101.5625 C 116.78125 -108.382812 115.265625 -113.40625 112.234375 -116.625 C 109.210938 -119.84375 105.164062 -121.453125 100.09375 -121.453125 C 95.40625 -121.453125 90.332031 -120.085938 84.875 -117.359375 C 79.414062 -114.628906 74.242188 -110.875 69.359375 -106.09375 C 64.484375 -101.3125 60.390625 -95.800781 57.078125 -89.5625 L 38.046875 0 L -1.171875 0 Z M 31.3125 -153.359375 "></path></g></g></g><g fill="#021a32" fill-opacity="1"><g transform="translate(987.385684, 479.197187)"><g><path d="M 47.125 -207.796875 L 130.828125 -207.796875 C 141.359375 -207.796875 150.378906 -205.0625 157.890625 -199.59375 C 165.410156 -194.132812 171.117188 -187.015625 175.015625 -178.234375 C 178.921875 -169.453125 180.875 -160.1875 180.875 -150.4375 C 180.875 -140.875 178.820312 -131.265625 174.71875 -121.609375 C 170.625 -111.953125 165.015625 -103.21875 157.890625 -95.40625 C 150.773438 -87.601562 142.484375 -81.359375 133.015625 -76.671875 C 123.554688 -71.992188 113.554688 -69.65625 103.015625 -69.65625 L 57.65625 -69.65625 L 43.015625 0 L 2.921875 0 Z M 107.703125 -105.0625 C 111.796875 -105.0625 115.742188 -106.132812 119.546875 -108.28125 C 123.359375 -110.4375 126.773438 -113.414062 129.796875 -117.21875 C 132.828125 -121.019531 135.21875 -125.457031 136.96875 -130.53125 C 138.726562 -135.601562 139.609375 -141.164062 139.609375 -147.21875 C 139.609375 -152.476562 138.773438 -157.007812 137.109375 -160.8125 C 135.453125 -164.625 133.160156 -167.503906 130.234375 -169.453125 C 127.304688 -171.410156 124.085938 -172.390625 120.578125 -172.390625 L 79.609375 -172.390625 L 65.265625 -105.0625 Z M 107.703125 -105.0625 "></path></g></g></g><g fill="#021a32" fill-opacity="1"><g transform="translate(1192.526601, 479.197187)"><g><path d="M 31.3125 -153.359375 L 67.3125 -153.359375 L 60.296875 -120.578125 C 67.703125 -131.117188 76.039062 -139.460938 85.3125 -145.609375 C 94.582031 -151.753906 103.703125 -154.828125 112.671875 -154.828125 C 114.628906 -154.828125 116.144531 -154.773438 117.21875 -154.671875 C 118.289062 -154.578125 119.117188 -154.429688 119.703125 -154.234375 L 112.390625 -119.40625 C 101.265625 -119.40625 90.773438 -117.113281 80.921875 -112.53125 C 71.066406 -107.945312 63.3125 -101.363281 57.65625 -92.78125 L 38.046875 0 L -1.171875 0 Z M 31.3125 -153.359375 "></path></g></g></g><g fill="#021a32" fill-opacity="1"><g transform="translate(1332.411083, 479.197187)"><g><path d="M 68.484375 2.921875 C 53.648438 2.921875 41.503906 -0.00390625 32.046875 -5.859375 C 22.585938 -11.710938 15.613281 -19.5625 11.125 -29.40625 C 6.632812 -39.257812 4.390625 -50.140625 4.390625 -62.046875 C 4.390625 -74.535156 6.679688 -86.4375 11.265625 -97.75 C 15.847656 -109.070312 22.332031 -119.117188 30.71875 -127.890625 C 39.113281 -136.671875 49.019531 -143.550781 60.4375 -148.53125 C 71.851562 -153.507812 84.390625 -156 98.046875 -156 C 112.867188 -156 125.007812 -153.070312 134.46875 -147.21875 C 143.9375 -141.363281 150.914062 -133.554688 155.40625 -123.796875 C 159.894531 -114.046875 162.140625 -103.117188 162.140625 -91.015625 C 162.140625 -78.535156 159.847656 -66.632812 155.265625 -55.3125 C 150.679688 -44 144.191406 -33.953125 135.796875 -25.171875 C 127.410156 -16.390625 117.507812 -9.507812 106.09375 -4.53125 C 94.675781 0.4375 82.140625 2.921875 68.484375 2.921875 Z M 74.34375 -30.4375 C 80.382812 -30.4375 86.234375 -31.800781 91.890625 -34.53125 C 97.554688 -37.257812 102.582031 -41.160156 106.96875 -46.234375 C 111.363281 -51.316406 114.875 -57.269531 117.5 -64.09375 C 120.132812 -70.925781 121.453125 -78.34375 121.453125 -86.34375 C 121.453125 -93.5625 120.332031 -99.898438 118.09375 -105.359375 C 115.851562 -110.828125 112.535156 -115.070312 108.140625 -118.09375 C 103.753906 -121.113281 98.4375 -122.625 92.1875 -122.625 C 86.144531 -122.625 80.34375 -121.257812 74.78125 -118.53125 C 69.21875 -115.800781 64.191406 -111.898438 59.703125 -106.828125 C 55.210938 -101.753906 51.648438 -95.753906 49.015625 -88.828125 C 46.390625 -81.898438 45.078125 -74.4375 45.078125 -66.4375 C 45.078125 -59.414062 46.195312 -53.171875 48.4375 -47.703125 C 50.675781 -42.242188 53.988281 -38 58.375 -34.96875 C 62.769531 -31.945312 68.09375 -30.4375 74.34375 -30.4375 Z M 74.34375 -30.4375 "></path></g></g></g></svg>