<svg width="140" height="140" viewBox="0 0 140 140" fill="none" xmlns="http://www.w3.org/2000/svg">
<rect opacity="0.01" width="140" height="140" fill="white"/>
<path fill-rule="evenodd" clip-rule="evenodd" d="M38 35H110V84H38L38 35Z" fill="#D7DBEC"/>
<path fill-rule="evenodd" clip-rule="evenodd" d="M23 41.4C23 39.1598 23 38.0397 23.436 37.184C23.8195 36.4314 24.4314 35.8195 25.184 35.436C26.0397 35 27.1598 35 29.4 35H47.75L60 45H72.5H111.6C113.84 45 114.96 45 115.816 45.436C116.569 45.8195 117.181 46.4314 117.564 47.184C118 48.0397 118 49.1598 118 51.4V98.6C118 100.84 118 101.96 117.564 102.816C117.181 103.569 116.569 104.181 115.816 104.564C114.96 105 113.84 105 111.6 105H29.4C27.1598 105 26.0397 105 25.184 104.564C24.4314 104.181 23.8195 103.569 23.436 102.816C23 101.96 23 100.84 23 98.6V41.4Z" fill="#336DFF"/>
<rect x="73" y="88" width="37" height="9" fill="#0030A6"/>
</svg>
